<svg aria-hidden="true" style="position:absolute;width:0;height:0;overflow:hidden" xmlns="http://www.w3.org/2000/svg">
  <defs>
    <symbol id="icon-facebook" viewBox="0 0 41 32">
      <path d="M31.526 2.563H10.371c-1.713 0-3.022 1.31-3.022 3.022v21.156c0 1.713 1.31 3.022 3.022 3.022h10.578V19.185h-3.022v-3.727h3.022v-3.123c0-3.224 1.813-5.541 5.642-5.541h2.72v3.929h-1.813c-1.511 0-2.116 1.108-2.116 2.216v2.518h3.929l-.806 3.727h-3.022v10.578h6.044c1.713 0 3.022-1.31 3.022-3.022V5.584c0-1.713-1.309-3.022-3.022-3.022z"/>
    </symbol>
    <symbol id="icon-twitter" viewBox="0 0 41 32">
      <path d="M31.727 11.227v.705c0 7.556-5.742 16.219-16.219 16.219-3.224 0-6.246-.907-8.764-2.518.403 0 .907.101 1.41.101 2.72 0 5.138-.907 7.052-2.418-2.519 0-4.634-1.713-5.339-3.929.302.101.705.101 1.108.101.504 0 1.007-.101 1.511-.201-2.619-.604-4.634-2.922-4.634-5.642v-.101c.806.403 1.612.705 2.619.705a5.641 5.641 0 0 1-2.519-4.735c0-1.007.302-2.015.806-2.821 2.821 3.425 7.052 5.742 11.787 5.944-.101-.403-.101-.806-.101-1.31 0-3.123 2.519-5.742 5.742-5.742 1.612 0 3.123.705 4.13 1.813 1.31-.302 2.519-.705 3.627-1.41-.403 1.31-1.309 2.418-2.518 3.123 1.007-.101 2.116-.403 3.123-.806-.806 1.108-1.713 2.116-2.821 2.921z"/>
    </symbol>
    <symbol id="icon-wibe" viewBox="0 0 41 32">
      <path d="M32.735 11.025c-1.108-2.418-2.72-4.533-4.936-6.044s-4.836-2.418-7.656-2.418c-2.015 0-3.828.504-5.239 1.007-2.418 1.007-4.533 2.72-6.044 5.037s-2.518 4.836-2.518 7.757c0 1.914.403 3.828 1.108 5.239 1.108 2.418 2.72 4.533 4.936 6.044s4.836 2.418 7.757 2.418c1.914 0 3.828-.504 5.239-1.007 2.418-1.108 4.533-2.72 6.044-5.037s2.418-4.836 2.418-7.656c0-2.015-.302-3.828-1.108-5.339zm-6.045 13.6a53.924 53.924 0 0 0-1.813-6.548c.403 0 1.108-.201 1.511-.201 1.209 0 2.216.201 3.123.302.302 0 .604.201.907.201-.302 1.31-.806 2.418-1.511 3.627-.504.907-1.209 1.914-2.216 2.619zm4.03-9.167c-.302 0-.604-.201-1.108-.201-.907-.101-2.116-.302-3.425-.302-.806 0-1.511 0-2.216.201v-.201c-.201-.302-.302-.806-.504-1.007 2.015-.907 3.526-2.015 4.433-2.72a4.718 4.718 0 0 1 1.108-1.007c.907 1.41 1.511 3.224 1.713 5.239zm-5.138-6.347c-.806.504-2.015 1.511-3.627 2.015a49.842 49.842 0 0 0-2.519-4.03 48.936 48.936 0 0 1-1.007-1.31c.403-.201 1.108-.201 1.713-.201 2.519 0 4.836.907 6.649 2.216-.302.504-.604.806-1.209 1.31zM15.105 6.996c.604.907 2.015 2.922 3.526 5.239-3.828.907-7.253 1.108-8.764 1.209.504-1.41 1.108-2.519 2.015-3.627.806-1.209 2.015-2.216 3.224-2.821zm-1.511 9.368c2.015-.201 4.231-.604 6.548-1.209.101.302.302.604.403.907a14.424 14.424 0 0 0-3.929 2.015c-1.813 1.209-3.022 2.519-3.929 3.828-.302.302-.604.806-.907 1.108-1.31-1.713-2.116-3.929-2.216-6.246a47.503 47.503 0 0 1 4.03-.403zm2.317 6.347c1.209-1.209 3.224-2.72 5.944-3.828 1.209 3.324 1.813 6.044 2.116 7.354-1.209.504-2.418.604-3.828.604-2.216 0-4.433-.806-6.246-2.015.302-.302.907-1.209 2.015-2.116z"/>
    </symbol>
    <symbol id="icon-be" viewBox="0 0 41 32">
      <path d="M17.523 15.558s2.821-.201 2.821-3.727c.101-3.526-2.317-5.239-5.238-5.239H5.334v19.544h9.772s5.944.201 5.944-5.742c0 0 .302-4.836-3.526-4.836zm-7.858-5.54h5.44s1.31 0 1.31 2.015-.806 2.317-1.713 2.317H9.665v-4.332zm5.138 12.592H9.665v-5.239h5.44s2.015 0 2.015 2.72c-.101 2.317-1.511 2.519-2.317 2.519zm14.204-11.081c-7.253 0-7.253 7.556-7.253 7.556s-.504 7.455 7.253 7.455c0 0 6.447.403 6.447-5.239H32.13s.101 2.116-3.022 2.116c0 0-3.324.201-3.324-3.425h9.671s1.108-8.462-6.447-8.462zm2.922 5.943h-6.145s.403-3.022 3.324-3.022 2.821 3.022 2.821 3.022zm.806-9.771h-7.757v2.418h7.757V7.701z"/>
    </symbol>
    <symbol id="icon-w" viewBox="0 0 41 32">
      <path d="M27.396 13.04s-2.216 7.052-2.418 7.556c-.101-.604-1.713-13.197-1.713-13.197-3.828 0-5.843 2.72-6.951 5.541 0 0-2.72 7.052-2.921 7.656 0-.504-.403-7.556-.403-7.556-.201-3.526-3.425-5.641-6.044-5.641l3.123 19.04c4.03 0 6.145-2.72 7.253-5.541 0 0 2.418-6.246 2.519-6.447 0 .302 1.713 12.089 1.713 12.089 4.03 0 6.145-2.519 7.354-5.339l5.641-13.802c-3.929 0-6.044 2.72-7.153 5.641z"/>
    </symbol>
    <symbol id="icon-instagram" viewBox="0 0 41 32">
      <path d="M30.519 3.57H9.363c-1.713 0-3.022 1.31-3.022 3.022v21.156c0 1.713 1.31 3.022 3.022 3.022h21.156c1.713 0 3.022-1.31 3.022-3.022V6.592c0-1.713-1.31-3.022-3.022-3.022zM19.941 25.532a8.34 8.34 0 0 0 8.361-8.361c0-.504-.101-1.007-.201-1.511h2.418v10.88a1.01 1.01 0 0 1-1.007 1.007H10.371a1.01 1.01 0 0 1-1.007-1.007V15.66h2.317c-.101.504-.201 1.007-.201 1.511.101 4.634 3.828 8.361 8.462 8.361zm-5.239-8.362c0-2.921 2.317-5.239 5.239-5.239s5.238 2.317 5.238 5.239c0 2.921-2.317 5.239-5.238 5.239s-5.239-2.418-5.239-5.239zm14.809-6.044h-2.418a1.01 1.01 0 0 1-1.007-1.007V7.601a1.01 1.01 0 0 1 1.007-1.007h2.418a1.01 1.01 0 0 1 1.007 1.007v2.418c0 .604-.504 1.108-1.007 1.108z"/>
    </symbol>
    <symbol id="icon-envelope" viewBox="0 0 41 32">
      <path d="M34.447 6.995c-.202-.806-1.007-1.41-1.914-1.41H8.355c-.907 0-1.713.604-1.914 1.41l14.003 12.693L34.447 6.995zM27.698 17.17l6.85 6.145v-12.29l-6.85 6.145zm-7.254 6.548-5.037-4.533-8.966 8.059c.202.907 1.007 1.511 1.914 1.511h24.178c.907 0 1.713-.604 1.914-1.41l-8.966-8.059-5.037 4.433zM6.341 11.025v12.29l6.85-6.145-6.85-6.145z"/>
    </symbol>
    <symbol id="icon-video" viewBox="0 0 32 32">
      <path d="M21.333 13.653v-1.92c0-1.813-1.387-3.2-3.2-3.2H6.4c-1.813 0-3.2 1.387-3.2 3.2v8.533c0 1.813 1.387 3.2 3.2 3.2h11.733c1.813 0 3.2-1.387 3.2-3.2v-1.92l7.467 4.053v-12.8l-7.467 4.053zM19.2 20.267c0 .64-.427 1.067-1.067 1.067H6.4c-.64 0-1.067-.427-1.067-1.067v-8.533c0-.64.427-1.067 1.067-1.067h11.733c.64 0 1.067.427 1.067 1.067v8.533zm7.467-1.494L21.547 16l5.12-2.773v5.547z"/>
    </symbol>
    <symbol id="icon-markup" viewBox="0 0 32 32">
      <path d="M24.533 4.267H7.466c-1.813 0-3.2 1.387-3.2 3.2v17.067c0 1.813 1.387 3.2 3.2 3.2h17.067c1.813 0 3.2-1.387 3.2-3.2V7.467c0-1.813-1.387-3.2-3.2-3.2zM11.733 25.6H7.466c-.64 0-1.067-.427-1.067-1.067V12.8h5.333v12.8zM25.6 24.533c0 .64-.427 1.067-1.067 1.067H13.866V12.8h11.733v11.733zm0-13.866H6.4v-3.2c0-.64.427-1.067 1.067-1.067h17.067c.64 0 1.067.427 1.067 1.067v3.2z"/>
    </symbol>
    <symbol id="icon-settings" viewBox="0 0 32 32">
      <path d="M16 11.733c-2.347 0-4.267 1.92-4.267 4.267s1.92 4.267 4.267 4.267c2.347 0 4.267-1.92 4.267-4.267s-1.92-4.267-4.267-4.267zm0 6.4c-1.173 0-2.133-.96-2.133-2.133s.96-2.133 2.133-2.133 2.133.96 2.133 2.133-.96 2.133-2.133 2.133zm9.6 1.067c1.813 0 3.2-1.387 3.2-3.2s-1.387-3.2-3.2-3.2h-.533c-.107-.32-.213-.64-.427-.96l.427-.427c1.28-1.28 1.28-3.307 0-4.48-1.28-1.28-3.307-1.28-4.48 0l-.427.427c-.32-.107-.64-.32-.96-.427V6.4c0-1.813-1.387-3.2-3.2-3.2s-3.2 1.387-3.2 3.2v.533c-.32.107-.64.213-.96.427l-.427-.427c-1.28-1.28-3.307-1.28-4.48 0-1.28 1.28-1.28 3.307 0 4.48l.427.427c-.107.32-.32.64-.427.96H6.4c-1.813 0-3.2 1.387-3.2 3.2s1.387 3.2 3.2 3.2h.533c.107.32.213.64.427.96l-.427.427c-1.28 1.28-1.28 3.307 0 4.48 1.28 1.28 3.307 1.28 4.48 0l.427-.427c.32.107.64.32.96.427v.533c0 1.813 1.387 3.2 3.2 3.2s3.2-1.387 3.2-3.2v-.533c.32-.107.64-.213.96-.427l.427.427c1.28 1.28 3.307 1.28 4.48 0 1.28-1.28 1.28-3.307 0-4.48l-.427-.427c.107-.32.32-.64.427-.96h.533zm-2.133 2.773c.427.427.427 1.173 0 1.6s-1.067.427-1.493 0l-1.493-1.493c-.96.747-2.133 1.28-3.413 1.387V25.6c0 .64-.427 1.067-1.067 1.067s-1.067-.427-1.067-1.067v-2.24c-1.28-.213-2.453-.64-3.413-1.387l-1.493 1.493c-.427.427-1.067.427-1.493 0s-.427-1.067 0-1.493l1.493-1.493c-.747-.96-1.28-2.133-1.387-3.413h-2.24c-.64 0-1.067-.427-1.067-1.067s.427-1.067 1.067-1.067h2.24c.213-1.28.64-2.453 1.387-3.413l-1.493-1.493c-.427-.427-.427-1.067 0-1.493s1.067-.427 1.493 0l1.493 1.493c.96-.747 2.133-1.28 3.413-1.387V6.4c0-.64.427-1.067 1.067-1.067s1.067.427 1.067 1.067v2.24c1.28.213 2.453.64 3.413 1.387l1.493-1.493c.427-.427 1.067-.427 1.493 0s.427 1.067 0 1.493l-1.493 1.493c.747.96 1.28 2.133 1.387 3.413h2.24c.64 0 1.067.427 1.067 1.067s-.427 1.067-1.067 1.067h-2.24c-.213 1.28-.64 2.453-1.387 3.413l1.493 1.493z"/>
    </symbol>
    <symbol id="icon-cloud" viewBox="0 0 32 32">
      <path d="M19.2 6.4c-4.16 0-7.68 2.667-9.067 6.4H9.6c-3.52 0-6.4 2.88-6.4 6.4s2.88 6.4 6.4 6.4h9.6c5.333 0 9.6-4.267 9.6-9.6s-4.267-9.6-9.6-9.6zm0 17.067H9.6c-2.347 0-4.267-1.92-4.267-4.267s1.92-4.267 4.267-4.267h2.24c.533-3.627 3.627-6.4 7.36-6.4 4.16 0 7.467 3.307 7.467 7.467s-3.307 7.467-7.467 7.467z"/>
    </symbol>
    <symbol id="icon-send" viewBox="0 0 32 32">
      <path fill="#fff" style="fill:var(--color1, #fff)" d="M32 0 0 18l10.227 3.788L26 7 14.002 23.186l.01.004-.012-.004V32l5.735-6.691L27 28l5-28z"/>
    </symbol>
 <symbol id="icon-person-input" viewBox="0 0 32 32">
      <path d="M16 16c2.947 0 5.333-2.387 5.333-5.333S18.946 5.334 16 5.334c-2.947 0-5.333 2.387-5.333 5.333S13.054 16 16 16zm0 2.667c-3.56 0-10.667 1.787-10.667 5.333v1.333c0 .733.6 1.333 1.333 1.333h18.667c.733 0 1.333-.6 1.333-1.333V24c0-3.547-7.107-5.333-10.667-5.333z"/>
    </symbol>
    <symbol id="icon-email-input" viewBox="0 0 32 32">
      <path d="M26.667 5.333H5.334A2.663 2.663 0 0 0 2.681 8l-.013 16c0 1.467 1.2 2.667 2.667 2.667h21.333c1.467 0 2.667-1.2 2.667-2.667V8c0-1.467-1.2-2.667-2.667-2.667zM26.133 11l-9.427 5.893a1.346 1.346 0 0 1-1.413 0L5.866 11a1.132 1.132 0 1 1 1.2-1.92l8.933 5.587 8.933-5.587a1.132 1.132 0 1 1 1.2 1.92z"/>
    </symbol>
    <symbol id="icon-scrolltotop" viewBox="0 0 48 48">
    <path d="M22.5 31.4h3v-9.1l3.7 3.7 2.1-2.1-7.3-7.3-7.3 7.3 2.1 2.1 3.7-3.7ZM24 44q-4.1 0-7.75-1.575-3.65-1.575-6.375-4.3-2.725-2.725-4.3-6.375Q4 28.1 4 24q0-4.15 1.575-7.8 1.575-3.65 4.3-6.35 2.725-2.7 6.375-4.275Q19.9 4 24 4q4.15 0 7.8 1.575 3.65 1.575 6.35 4.275 2.7 2.7 4.275 6.35Q44 19.85 44 24q0 4.1-1.575 7.75-1.575 3.65-4.275 6.375t-6.35 4.3Q28.15 44 24 44Zm0-3q7.1 0 12.05-4.975Q41 31.05 41 24q0-7.1-4.95-12.05Q31.1 7 24 7q-7.05 0-12.025 4.95Q7 16.9 7 24q0 7.05 4.975 12.025Q16.95 41 24 41Zm0-17Z"/>
    </symbol>
  </defs>
</svg>
